<svg xmlns="http://www.w3.org/2000/svg" viewBox="0 0 1180 220" role="img" aria-labelledby="title desc"><title id="title">Supplier journey</title><desc id="desc">A numbered end-to-end flow for the supplier journey.</desc><rect width="1180" height="220" rx="22" fill="#f6f9fa"/><text x="38" y="38" font-family="Inter,Arial,sans-serif" font-size="18" font-weight="800" fill="#0e1720">Supplier journey</text><text x="38" y="58" font-family="Inter,Arial,sans-serif" font-size="12" fill="#5b6873">Follow the flow from left to right. Open the relevant guide when a step is unfamiliar.</text><path d="M167.5 115h8.0" stroke="#d6880c" stroke-width="2" stroke-linecap="round"/><path d="M172.5 111l4 4-4 4" fill="none" stroke="#d6880c" stroke-width="2" stroke-linecap="round" stroke-linejoin="round"/><path d="M307.0 115h8.0" stroke="#d6880c" stroke-width="2" stroke-linecap="round"/><path d="M312.0 111l4 4-4 4" fill="none" stroke="#d6880c" stroke-width="2" stroke-linecap="round" stroke-linejoin="round"/><path d="M446.5 115h8.0" stroke="#d6880c" stroke-width="2" stroke-linecap="round"/><path d="M451.5 111l4 4-4 4" fill="none" stroke="#d6880c" stroke-width="2" stroke-linecap="round" stroke-linejoin="round"/><path d="M586.0 115h8.0" stroke="#d6880c" stroke-width="2" stroke-linecap="round"/><path d="M591.0 111l4 4-4 4" fill="none" stroke="#d6880c" stroke-width="2" stroke-linecap="round" stroke-linejoin="round"/><path d="M725.5 115h8.0" stroke="#d6880c" stroke-width="2" stroke-linecap="round"/><path d="M730.5 111l4 4-4 4" fill="none" stroke="#d6880c" stroke-width="2" stroke-linecap="round" stroke-linejoin="round"/><path d="M865.0 115h8.0" stroke="#d6880c" stroke-width="2" stroke-linecap="round"/><path d="M870.0 111l4 4-4 4" fill="none" stroke="#d6880c" stroke-width="2" stroke-linecap="round" stroke-linejoin="round"/><path d="M1004.5 115h8.0" stroke="#d6880c" stroke-width="2" stroke-linecap="round"/><path d="M1009.5 111l4 4-4 4" fill="none" stroke="#d6880c" stroke-width="2" stroke-linecap="round" stroke-linejoin="round"/><g><rect x="38.0" y="78" width="127.5" height="74" rx="15" fill="#fff" stroke="#dfe5e8"/><circle cx="60.0" cy="100" r="12" fill="#fff6df"/><text x="60.0" y="104" text-anchor="middle" font-family="Inter,Arial,sans-serif" font-size="11" font-weight="800" fill="#d6880c">1</text><text x="50.0" y="129" font-family="Inter,Arial,sans-serif" font-size="11" font-weight="700" fill="#0e1720">Profile</text></g><g><rect x="177.5" y="78" width="127.5" height="74" rx="15" fill="#fff" stroke="#dfe5e8"/><circle cx="199.5" cy="100" r="12" fill="#fff6df"/><text x="199.5" y="104" text-anchor="middle" font-family="Inter,Arial,sans-serif" font-size="11" font-weight="800" fill="#d6880c">2</text><text x="189.5" y="129" font-family="Inter,Arial,sans-serif" font-size="11" font-weight="700" fill="#0e1720">Catalog</text></g><g><rect x="317.0" y="78" width="127.5" height="74" rx="15" fill="#fff" stroke="#dfe5e8"/><circle cx="339.0" cy="100" r="12" fill="#fff6df"/><text x="339.0" y="104" text-anchor="middle" font-family="Inter,Arial,sans-serif" font-size="11" font-weight="800" fill="#d6880c">3</text><text x="329.0" y="129" font-family="Inter,Arial,sans-serif" font-size="11" font-weight="700" fill="#0e1720">Connect</text></g><g><rect x="456.5" y="78" width="127.5" height="74" rx="15" fill="#fff" stroke="#dfe5e8"/><circle cx="478.5" cy="100" r="12" fill="#fff6df"/><text x="478.5" y="104" text-anchor="middle" font-family="Inter,Arial,sans-serif" font-size="11" font-weight="800" fill="#d6880c">4</text><text x="468.5" y="129" font-family="Inter,Arial,sans-serif" font-size="11" font-weight="700" fill="#0e1720">Receive PO</text></g><g><rect x="596.0" y="78" width="127.5" height="74" rx="15" fill="#fff" stroke="#dfe5e8"/><circle cx="618.0" cy="100" r="12" fill="#fff6df"/><text x="618.0" y="104" text-anchor="middle" font-family="Inter,Arial,sans-serif" font-size="11" font-weight="800" fill="#d6880c">5</text><text x="608.0" y="129" font-family="Inter,Arial,sans-serif" font-size="11" font-weight="700" fill="#0e1720">Confirm</text></g><g><rect x="735.5" y="78" width="127.5" height="74" rx="15" fill="#fff" stroke="#dfe5e8"/><circle cx="757.5" cy="100" r="12" fill="#fff6df"/><text x="757.5" y="104" text-anchor="middle" font-family="Inter,Arial,sans-serif" font-size="11" font-weight="800" fill="#d6880c">6</text><text x="747.5" y="129" font-family="Inter,Arial,sans-serif" font-size="11" font-weight="700" fill="#0e1720">Fulfil</text></g><g><rect x="875.0" y="78" width="127.5" height="74" rx="15" fill="#fff" stroke="#dfe5e8"/><circle cx="897.0" cy="100" r="12" fill="#fff6df"/><text x="897.0" y="104" text-anchor="middle" font-family="Inter,Arial,sans-serif" font-size="11" font-weight="800" fill="#d6880c">7</text><text x="887.0" y="129" font-family="Inter,Arial,sans-serif" font-size="11" font-weight="700" fill="#0e1720">Merchant receives</text></g><g><rect x="1014.5" y="78" width="127.5" height="74" rx="15" fill="#fff" stroke="#dfe5e8"/><circle cx="1036.5" cy="100" r="12" fill="#fff6df"/><text x="1036.5" y="104" text-anchor="middle" font-family="Inter,Arial,sans-serif" font-size="11" font-weight="800" fill="#d6880c">8</text><text x="1026.5" y="129" font-family="Inter,Arial,sans-serif" font-size="11" font-weight="700" fill="#0e1720">Accounting</text></g></svg>